<svg width="24" height="24" viewBox="0 0 24 24" fill="black" xmlns="http://www.w3.org/2000/svg">
<path d="M14.3466 4.1902C14.606 3.9366 15.0267 3.9366 15.2861 4.1902L22.7167 11.4546C22.7304 11.4683 22.741 11.4845 22.7535 11.499C22.9026 11.6181 23 11.7971 23 12C23 12.2026 22.9023 12.3808 22.7535 12.4999C22.7408 12.5147 22.7306 12.5315 22.7167 12.5454L15.2861 19.8098C15.0267 20.0634 14.606 20.0634 14.3466 19.8098C14.0873 19.5562 14.0873 19.1459 14.3466 18.8924L20.7329 12.649H1.66382C1.29696 12.649 1 12.3586 1 12C1 11.6414 1.29696 11.351 1.66382 11.351H20.7329L14.3466 5.10763C14.0873 4.85405 14.0873 4.44379 14.3466 4.1902Z"/>
</svg>
